<?xml version="1.0" standalone="no"?>
<!DOCTYPE svg PUBLIC "-//W3C//DTD SVG 20010904//EN"
 "http://www.w3.org/TR/2001/REC-SVG-20010904/DTD/svg10.dtd">
<svg version="1.0" xmlns="http://www.w3.org/2000/svg"
 width="128.000000pt" height="128.000000pt" viewBox="0 0 128.000000 128.000000"
 preserveAspectRatio="xMidYMid meet">
<metadata>
Created by potrace 1.11, written by Peter Selinger 2001-2013
</metadata>
<g transform="translate(0.000000,128.000000) scale(0.100000,-0.100000)"
fill="#000000" stroke="none">
<path d="M59 1145 c-6 -1 -4 -994 2 -1007 6 -11 16 -14 30 -11 17 5 20 3 14
-8 -6 -11 -5 -12 6 -2 17 17 42 17 33 1 -5 -10 -4 -10 6 -1 11 10 17 10 29 0
8 -6 12 -7 8 -1 -4 7 16 11 63 11 38 -1 67 -4 65 -7 -2 -4 2 -7 10 -7 8 0 12
3 10 7 -2 4 20 7 50 7 34 -1 52 -5 49 -11 -3 -6 2 -2 10 8 15 18 21 15 16 -9
-1 -5 9 -1 21 10 12 11 19 15 16 8 -4 -6 -3 -14 3 -18 5 -3 10 0 10 7 0 9 3 9
10 -2 8 -13 10 -12 10 4 0 20 0 20 16 0 8 -10 13 -14 10 -7 -5 8 6 12 34 11
27 0 38 -4 33 -12 -4 -7 -1 -6 8 1 12 10 18 10 29 0 7 -7 10 -7 7 -1 -8 14
121 14 142 0 9 -6 12 -5 7 2 -4 6 6 10 26 8 18 -1 43 2 55 6 14 4 25 3 29 -4
5 -7 3 -8 -6 -3 -9 5 -11 4 -6 -4 5 -8 12 -9 20 -2 16 13 126 10 126 -3 0 -7
3 -6 8 1 9 14 51 14 71 -1 11 -8 13 -8 7 2 -4 7 -2 12 6 12 8 0 20 -6 27 -12
9 -9 12 -9 7 -1 -4 7 2 13 16 15 l23 3 0 505 0 505 -583 0 c-320 0 -583 0
-583 0z"/>
</g>
</svg>
